<svg xmlns="http://www.w3.org/2000/svg" version="1.1" viewBox="-5.0 -10.0 110.0 135.0">
 <g>
  <path d="m37.5 7.8125h-21.875c-4.3125 0-7.8125 3.5-7.8125 7.8125v21.875c0 4.3125 3.5 7.8125 7.8125 7.8125h21.875c4.3125 0 7.8125-3.5 7.8125-7.8125v-21.875c0-4.3125-3.5-7.8125-7.8125-7.8125zm4.6875 29.688c0 2.5781-2.1094 4.6875-4.6875 4.6875h-21.875c-2.5781 0-4.6875-2.1094-4.6875-4.6875v-21.875c0-2.5781 2.1094-4.6875 4.6875-4.6875h21.875c2.5781 0 4.6875 2.1094 4.6875 4.6875z"/>
  <path d="m84.375 7.8125h-21.875c-4.3125 0-7.8125 3.5-7.8125 7.8125v21.875c0 4.3125 3.5 7.8125 7.8125 7.8125h21.875c4.3125 0 7.8125-3.5 7.8125-7.8125v-21.875c0-4.3125-3.5-7.8125-7.8125-7.8125zm4.6875 29.688c0 2.5781-2.1094 4.6875-4.6875 4.6875h-21.875c-2.5781 0-4.6875-2.1094-4.6875-4.6875v-21.875c0-2.5781 2.1094-4.6875 4.6875-4.6875h21.875c2.5781 0 4.6875 2.1094 4.6875 4.6875z"/>
  <path d="m37.5 54.688h-21.875c-4.3125 0-7.8125 3.5-7.8125 7.8125v21.875c0 4.3125 3.5 7.8125 7.8125 7.8125h21.875c4.3125 0 7.8125-3.5 7.8125-7.8125v-21.875c0-4.3125-3.5-7.8125-7.8125-7.8125zm4.6875 29.688c0 2.5781-2.1094 4.6875-4.6875 4.6875h-21.875c-2.5781 0-4.6875-2.1094-4.6875-4.6875v-21.875c0-2.5781 2.1094-4.6875 4.6875-4.6875h21.875c2.5781 0 4.6875 2.1094 4.6875 4.6875z"/>
  <path d="m84.375 54.688h-21.875c-4.3125 0-7.8125 3.5-7.8125 7.8125v21.875c0 4.3125 3.5 7.8125 7.8125 7.8125h21.875c4.3125 0 7.8125-3.5 7.8125-7.8125v-21.875c0-4.3125-3.5-7.8125-7.8125-7.8125zm4.6875 29.688c0 2.5781-2.1094 4.6875-4.6875 4.6875h-21.875c-2.5781 0-4.6875-2.1094-4.6875-4.6875v-21.875c0-2.5781 2.1094-4.6875 4.6875-4.6875h21.875c2.5781 0 4.6875 2.1094 4.6875 4.6875z"/>
 </g>
</svg>