<svg xmlns="http://www.w3.org/2000/svg" version="1.1" viewBox="-5.0 -10.0 110.0 135.0">
 <g>
  <path d="m22.203 18.754c-5.3203 0-9.6914 4.3672-9.6914 9.6875v49.344c0 5.3203 4.3672 9.7109 9.6914 9.7109h49.344c5.3203 0 9.7109-4.3906 9.7109-9.7109v-24.66 0.003906c0.003907-0.83594-0.32812-1.6328-0.91797-2.2227s-1.3867-0.91797-2.2227-0.91406c-0.82813 0-1.6211 0.33203-2.207 0.92187-0.58203 0.58984-0.90625 1.3828-0.90625 2.2148v24.66c0 1.9688-1.4922 3.4609-3.4609 3.4609h-49.344c-1.9688 0-3.4609-1.4922-3.4609-3.4609v-49.344c0-1.9688 1.4922-3.4375 3.4609-3.4375h24.684c0.83203-0.003906 1.625-0.33594 2.207-0.92578 0.58594-0.58594 0.91406-1.3828 0.91016-2.2109-0.007812-1.7188-1.3984-3.1094-3.1172-3.1172z"/>
  <path d="m42.594 46.715c-0.48438 0.47266-0.79297 1.0859-0.89844 1.7539l-1.0391 7.3359c-0.30859 2.0664 1.4609 3.8438 3.5273 3.5508l7.3359-1.0625c0.67188-0.09375 1.293-0.39844 1.7773-0.875l31.996-32.02c1.2109-1.2188 1.2109-3.1875 0-4.4062-1.2188-1.2109-3.1875-1.2109-4.4062 0l-31.281 31.258-2.168 0.30078 0.29688-2.168 31.281-31.258c1.2266-1.2227 1.2266-3.207 0-4.4297-1.2227-1.2266-3.207-1.2266-4.4297 0z"/>
  <path d="m74.59 14.695c-0.58984 0.58594-0.92188 1.3828-0.92188 2.2148 0 0.83203 0.33203 1.6289 0.92188 2.2148 0.58594 0.58984 1.3828 0.91797 2.2148 0.91797 0.83203 0 1.6289-0.32812 2.2148-0.91797 0.54297-0.54297 1.3281-0.54297 1.8672 0 0.54297 0.54297 0.54297 1.3281 0 1.8672-1.2109 1.2188-1.2109 3.1875 0 4.4062 1.2188 1.2109 3.1875 1.2109 4.4062 0 2.9297-2.9297 2.9297-7.7734 0-10.703-2.9297-2.9297-7.7734-2.9297-10.703 0z"/>
 </g>
</svg>