<svg xmlns="http://www.w3.org/2000/svg" version="1.1" viewBox="-5.0 -10.0 110.0 135.0">
 <path d="m67.188 17.188v-7.8125c0-0.86328-0.69922-1.5625-1.5625-1.5625h-56.25c-0.86328 0-1.5625 0.69922-1.5625 1.5625v68.75c0 0.86328 0.69922 1.5625 1.5625 1.5625h7.8125v-57.812c0-2.5898 2.0977-4.6875 4.6875-4.6875z" fill-rule="evenodd"/>
 <path d="m79.688 55.234v-33.359c0-0.86328-0.69922-1.5625-1.5625-1.5625h-56.25c-0.86328 0-1.5625 0.69922-1.5625 1.5625v68.75c0 0.86328 0.69922 1.5625 1.5625 1.5625h42.301c-5.6992-3.5977-9.4883-9.9531-9.4883-17.188 0-11.211 9.1016-20.312 20.312-20.312 1.6133 0 3.1836 0.1875 4.6875 0.54688zm-51.562 30.703h21.875c0.86328 0 1.5625-0.69922 1.5625-1.5625s-0.69922-1.5625-1.5625-1.5625h-21.875c-0.86328 0-1.5625 0.69922-1.5625 1.5625s0.69922 1.5625 1.5625 1.5625zm0-9.375h21.875c0.86328 0 1.5625-0.69922 1.5625-1.5625s-0.69922-1.5625-1.5625-1.5625h-21.875c-0.86328 0-1.5625 0.69922-1.5625 1.5625s0.69922 1.5625 1.5625 1.5625zm0-9.375h21.875c0.86328 0 1.5625-0.69922 1.5625-1.5625s-0.69922-1.5625-1.5625-1.5625h-21.875c-0.86328 0-1.5625 0.69922-1.5625 1.5625s0.69922 1.5625 1.5625 1.5625zm0-9.375h6.25c0.86328 0 1.5625-0.69922 1.5625-1.5625s-0.69922-1.5625-1.5625-1.5625h-6.25c-0.86328 0-1.5625 0.69922-1.5625 1.5625s0.69922 1.5625 1.5625 1.5625zm12.5 0h15.625c0.86328 0 1.5625-0.69922 1.5625-1.5625s-0.69922-1.5625-1.5625-1.5625h-15.625c-0.86328 0-1.5625 0.69922-1.5625 1.5625s0.69922 1.5625 1.5625 1.5625zm-12.5-9.375h43.75c0.86328 0 1.5625-0.69922 1.5625-1.5625s-0.69922-1.5625-1.5625-1.5625h-43.75c-0.86328 0-1.5625 0.69922-1.5625 1.5625s0.69922 1.5625 1.5625 1.5625zm43.75-12.5h-12.5c-0.86328 0-1.5625 0.69922-1.5625 1.5625s0.69922 1.5625 1.5625 1.5625h12.5c0.86328 0 1.5625-0.69922 1.5625-1.5625s-0.69922-1.5625-1.5625-1.5625zm-43.75 3.125h25c0.86328 0 1.5625-0.69922 1.5625-1.5625s-0.69922-1.5625-1.5625-1.5625h-25c-0.86328 0-1.5625 0.69922-1.5625 1.5625s0.69922 1.5625 1.5625 1.5625zm0-9.375h43.75c0.86328 0 1.5625-0.69922 1.5625-1.5625s-0.69922-1.5625-1.5625-1.5625h-43.75c-0.86328 0-1.5625 0.69922-1.5625 1.5625s0.69922 1.5625 1.5625 1.5625z" fill-rule="evenodd"/>
 <path d="m75 57.812c9.4844 0 17.188 7.7031 17.188 17.188s-7.7031 17.188-17.188 17.188-17.188-7.7031-17.188-17.188 7.7031-17.188 17.188-17.188zm3.9688 4.832c-0.042969-0.71484-0.5625-1.3086-1.2617-1.4453-1.7891-0.34766-3.625-0.34766-5.4141 0-0.69922 0.13672-1.2188 0.73047-1.2617 1.4453l-0.16406 2.8594c-0.71484 0.3125-1.3945 0.70703-2.0234 1.1719l-2.5625-1.2891c-0.63672-0.32031-1.4102-0.16797-1.8789 0.37109-1.1992 1.3711-2.1172 2.9648-2.707 4.6875-0.23047 0.67578 0.023438 1.4219 0.62109 1.8125l2.3945 1.5703c-0.085938 0.78125-0.085938 1.5625 0 2.3438l-2.3945 1.5703c-0.59766 0.39062-0.85156 1.1367-0.62109 1.8125 0.58984 1.7227 1.5078 3.3164 2.707 4.6875 0.46875 0.53906 1.2422 0.69141 1.8789 0.37109l2.5625-1.2891c0.62891 0.46484 1.3086 0.85938 2.0273 1.1719-0.003906 0 0.16016 2.8594 0.16016 2.8594 0.042969 0.71484 0.5625 1.3086 1.2617 1.4453 1.7891 0.34766 3.625 0.34766 5.4141 0 0.69922-0.13672 1.2188-0.73047 1.2617-1.4453l0.16406-2.8594c0.71484-0.3125 1.3945-0.70703 2.0234-1.1719l2.5625 1.2891c0.63672 0.32031 1.4102 0.16797 1.8789-0.37109 1.1992-1.3711 2.1172-2.9648 2.707-4.6875 0.23047-0.67578-0.023438-1.4219-0.62109-1.8125l-2.3945-1.5703c0.085938-0.78125 0.085938-1.5625 0-2.3438l2.3945-1.5703c0.59766-0.39062 0.85156-1.1367 0.62109-1.8125-0.58984-1.7227-1.5078-3.3164-2.707-4.6875-0.46875-0.53906-1.2422-0.69141-1.8789-0.37109l-2.5625 1.2891c-0.62891-0.46484-1.3086-0.85938-2.0273-1.1719 0.003906 0-0.16016-2.8594-0.16016-2.8594zm-3.0469 1.457 0.14844 2.5977c0.035157 0.64844 0.47266 1.207 1.0938 1.4023 1.0156 0.31641 1.9453 0.85547 2.7305 1.5781 0.47656 0.4375 1.1797 0.53516 1.7578 0.24219l2.3242-1.168c0.35156 0.50391 0.66016 1.0352 0.92188 1.5938l-2.1758 1.4297c-0.54297 0.35547-0.80859 1.0117-0.66797 1.6445 0.23437 1.0391 0.23437 2.1172 0 3.1562-0.14063 0.63281 0.125 1.2891 0.66797 1.6445l2.1758 1.4297c-0.26172 0.55859-0.57031 1.0898-0.92188 1.5938l-2.3242-1.168c-0.57812-0.29297-1.2812-0.19531-1.7578 0.24219-0.78516 0.72266-1.7148 1.2617-2.7305 1.5781-0.62109 0.19531-1.0586 0.75391-1.0938 1.4023l-0.14844 2.5977c-0.61328 0.050781-1.2305 0.050781-1.8438 0 0 0-0.14844-2.5977-0.14844-2.5977-0.035157-0.64844-0.47266-1.207-1.0938-1.4023-1.0156-0.31641-1.9453-0.85547-2.7305-1.5781-0.47656-0.4375-1.1797-0.53516-1.7578-0.24219l-2.3242 1.168c-0.35156-0.50391-0.66016-1.0352-0.92188-1.5938l2.1758-1.4297c0.54297-0.35547 0.80859-1.0117 0.66797-1.6445-0.23437-1.0391-0.23437-2.1172 0-3.1562 0.14063-0.63281-0.125-1.2891-0.66797-1.6445l-2.1758-1.4297c0.26172-0.55859 0.57031-1.0898 0.92188-1.5938l2.3242 1.168c0.57812 0.29297 1.2812 0.19531 1.7578-0.24219 0.78516-0.72266 1.7148-1.2617 2.7305-1.5781 0.62109-0.19531 1.0586-0.75391 1.0938-1.4023l0.14844-2.5977c0.61328-0.050781 1.2305-0.050781 1.8438 0zm-0.92188 6.8359c-2.2422 0-4.0625 1.8203-4.0625 4.0625s1.8203 4.0625 4.0625 4.0625 4.0625-1.8203 4.0625-4.0625-1.8203-4.0625-4.0625-4.0625z" fill-rule="evenodd"/>
</svg>