<svg xmlns:dc="http://purl.org/dc/elements/1.1/" xmlns:cc="http://creativecommons.org/ns#" xmlns:rdf="http://www.w3.org/1999/02/22-rdf-syntax-ns#" xmlns:svg="http://www.w3.org/2000/svg" xmlns="http://www.w3.org/2000/svg" xmlns:sodipodi="http://sodipodi.sourceforge.net/DTD/sodipodi-0.dtd" xmlns:inkscape="http://www.inkscape.org/namespaces/inkscape" version="1.1" x="0px" y="0px" viewBox="0 0 100 125"><g transform="translate(0,-952.36218)"><path style="text-indent:0;text-transform:none;direction:ltr;block-progression:tb;baseline-shift:baseline;color:#000000;enable-background:accumulate;" d="m 64.968802,960.36207 c -7.1686,0 -13.1087,5.1911 -14.5938,12.0625 l -14.875,-3.9687 c -0.3691,-0.1495 -0.7611,-0.083 -1,0 l -30.0000005,8 c -0.8511,0.2198 -1.5003,1.0584 -1.5,1.9374 l 0,63.99993 c 0.018,1.2055 1.3326,2.2077 2.5,1.9063 l 29.5000005,-7.875 29.5,7.875 c 0.3262,0.084 0.6738,0.084 1,0 l 29.999997,-8 c 0.8411,-0.2171 1.4868,-1.0377 1.5,-1.9063 l 0,-63.99993 c 4e-4,-1.2159 -1.3227,-2.2412 -2.5,-1.9374 l -14.8438,3.9374 c -1.541,-7.4578 -8.108697,-12.0707 -14.687397,-12.0312 z m 0,4 c 6.0668,0 11.0312,5.0365 11.0312,11.4062 0,1.3217 -0.4391,3.3664 -0.9062,4.625 -3.3416,7.0971 -6.7258,14.1908 -10.0938,21.28133 -3.3532,-7.09763 -6.7665,-14.17743 -10.0938,-21.28133 -0.4664,-1.2624 -0.9062,-3.3067 -0.9062,-4.625 0.2495,-7.265 5.7122,-11.3544 10.9688,-11.4062 z m 0.031,5 c -3.29,0 -6,2.71 -6,6 0,3.29 2.71,6 6,6 3.2899,0 6,-2.7099 6,-6 0,-3.2901 -2.7101,-6 -6,-6 z m -32,3.5938 0,59.90613 -26.0000005,6.9375 0,-59.90623 z m 4,0 13.0312,3.4687 c 0.091,1.8906 0.5444,3.8485 1.125,5.4063 3.9234,8.3172 7.895,16.6492 11.8438,24.96873 l 0,32.9999 -26,-6.9375 z m 55.999997,0 0,59.90613 -25.999997,6.9375 0,-32.9999 c 3.8999,-8.34123 7.9897,-16.62093 11.843797,-24.96873 0.5851,-1.5622 1.0353,-3.5175 1.125,-5.4063 z m -27.999797,0.4062 c 1.1281,0 2,0.8718 2,2 0,1.1282 -0.8719,2 -2,2 -1.1284,0 -2,-0.8717 -2,-2 0,-1.1283 0.8716,-2 2,-2 z" fill="#000000" fill-opacity="1" stroke="none" marker="none" visibility="visible" display="inline" overflow="visible"/></g></svg>