<svg xmlns="http://www.w3.org/2000/svg" xmlns:xlink="http://www.w3.org/1999/xlink" version="1.1" x="0px" y="0px" viewBox="0 0 96 120" style="enable-background:new 0 0 96 96;" xml:space="preserve"><g><g><path d="M48,12c-14.6,0-26,11-26,25c0,3.1,1.2,9.3,3.2,13.8c6.5,14.9,20.7,31.8,21.3,32.5c0.4,0.5,0.9,0.7,1.5,0.7    s1.1-0.3,1.5-0.7c0.6-0.7,14.8-17.6,21.3-32.5c2-4.5,3.2-10.7,3.2-13.8C74,23,62.6,12,48,12z M67.1,49.2    C62.1,60.7,51.9,74,48,78.8C44.1,74,33.9,60.7,28.9,49.2C27.1,45.3,26,39.7,26,37c0-11.8,9.7-21,22-21s22,9.2,22,21    C70,39.7,68.9,45.3,67.1,49.2z"/><path d="M48,24c-7.7,0-14,6.3-14,14s6.3,14,14,14s14-6.3,14-14S55.7,24,48,24z M48,48c-5.5,0-10-4.5-10-10s4.5-10,10-10    s10,4.5,10,10S53.5,48,48,48z"/></g></g></svg>