<svg xmlns="http://www.w3.org/2000/svg" viewBox="0 0 24 30" x="0px" y="0px"><title>ecommerce 5</title><g data-name="Layer 2"><path d="M1.25,17.17a3.59,3.59,0,0,0,3.58,3.58h6.3a3.54,3.54,0,0,0,2.34-.9,5.25,5.25,0,1,0,4-8.6,5.22,5.22,0,0,0-4.19,2.11,5.88,5.88,0,0,0-2.23-1.67,5.24,5.24,0,1,0-6.19,0A6,6,0,0,0,1.25,17.17Zm3-9.68A3.74,3.74,0,1,1,8,11.22H8A3.73,3.73,0,0,1,4.25,7.49Zm2.94,5.23H8.77a4.4,4.4,0,0,1,3.91,2.37l.06.06a.44.44,0,0,0,.12.15l.07,0a1,1,0,0,0,.13.09h.1a.74.74,0,0,0,.53-.05h0a.87.87,0,0,0,.21-.17l0-.05A.48.48,0,0,0,14,15a3.76,3.76,0,1,1-.25,2,.75.75,0,0,0-1.49.22,5.42,5.42,0,0,0,.38,1.28,1,1,0,0,1-.08.11,2.08,2.08,0,0,1-1.47.61H4.83a2.08,2.08,0,0,1-2.08-2.08A4.45,4.45,0,0,1,7.19,12.72Z"/><path d="M17.5,17.13a.76.76,0,0,0,.75-.75v-2a.75.75,0,0,0-1.5,0v2A.76.76,0,0,0,17.5,17.13Z"/><circle cx="17.5" cy="18.38" r="0.75"/></g><text x="0" y="39" fill="#000000" font-size="5px" font-weight="bold" font-family="'Helvetica Neue', Helvetica, Arial-Unicode, Arial, Sans-serif">Created by Nursila</text><text x="0" y="44" fill="#000000" font-size="5px" font-weight="bold" font-family="'Helvetica Neue', Helvetica, Arial-Unicode, Arial, Sans-serif">from the Noun Project</text></svg>