<svg xmlns="http://www.w3.org/2000/svg" xmlns:xlink="http://www.w3.org/1999/xlink" xml:space="preserve" version="1.1" style="shape-rendering:geometricPrecision;text-rendering:geometricPrecision;image-rendering:optimizeQuality;" viewBox="0 0 111.25 100.55" x="0px" y="0px" fill-rule="evenodd" clip-rule="evenodd"><defs><style type="text/css">
   
    .fil0 {fill:black;fill-rule:nonzero}
   
  </style></defs><g><path class="fil0" d="M11.37 23.2l71.26 0c15.74,0 28.62,12.89 28.62,28.63 0,15.72 -12.9,28.62 -28.62,28.62l-18.32 0c-4.39,0 -4.39,-6.67 0,-6.67l18.32 0c12.09,0 21.95,-9.87 21.95,-21.95 0,-12.07 -9.87,-21.96 -21.95,-21.96l-71.26 0 17.49 17.48c3.1,3.08 -1.59,7.8 -4.69,4.72l-23.19 -23.17c-1.31,-1.31 -1.3,-3.43 0,-4.72l23.19 -23.17c3.1,-3.08 7.79,1.63 4.69,4.72l-17.49 17.48z"/></g></svg>