<svg xmlns="http://www.w3.org/2000/svg" version="1.1" viewBox="-5.0 -10.0 110.0 135.0">
 <path d="m25 6.25c12.07 0 21.875 9.8047 21.875 21.875s-9.8047 21.875-21.875 21.875-21.875-9.8047-21.875-21.875 9.8047-21.875 21.875-21.875zm7.8125 14.062c-1.7227 0-3.125 1.3984-3.125 3.125s1.4023 3.125 3.125 3.125c1.7266 0 3.125-1.3984 3.125-3.125s-1.3984-3.125-3.125-3.125zm-16.113 14.859c2.7461 2.3906 5.543 3.4961 8.2891 3.5039 2.7617 0.011719 5.5703-1.082 8.332-3.5195 1.293-1.1445 1.4141-3.1211 0.26953-4.4141-1.1406-1.293-3.1172-1.4141-4.4102-0.27344-1.4062 1.2461-2.7617 1.9648-4.168 1.957-1.418 0-2.7891-0.73828-4.2109-1.9727-1.3047-1.1328-3.2773-0.99219-4.4102 0.30859-1.1289 1.3008-0.99219 3.2773 0.30859 4.4102zm0.48828-14.859c-1.7266 0-3.125 1.3984-3.125 3.125s1.3984 3.125 3.125 3.125c1.7227 0 3.125-1.3984 3.125-3.125s-1.4023-3.125-3.125-3.125zm57.812-14.062c12.074 0 21.875 9.8047 21.875 21.875s-9.8008 21.875-21.875 21.875-21.875-9.8047-21.875-21.875 9.8008-21.875 21.875-21.875zm-7.8125 14.062c-1.7266 0-3.125 1.3984-3.125 3.125s1.3984 3.125 3.125 3.125 3.125-1.3984 3.125-3.125-1.3984-3.125-3.125-3.125zm3.6133 17.602c1.418-1.2383 2.793-1.9727 4.2109-1.9766 1.4023-0.003906 2.7617 0.71484 4.168 1.957 1.293 1.1445 3.2695 1.0195 4.4141-0.27344 1.1406-1.2891 1.0195-3.2695-0.27344-4.4102-2.7617-2.4414-5.5703-3.5352-8.332-3.5234-2.75 0.007812-5.5391 1.1172-8.2891 3.5078-1.3008 1.1289-1.4375 3.1094-0.30469 4.4062 1.1289 1.3047 3.1055 1.4414 4.4062 0.3125zm12.012-17.602c-1.7266 0-3.125 1.3984-3.125 3.125s1.3984 3.125 3.125 3.125c1.7227 0 3.125-1.3984 3.125-3.125s-1.4023-3.125-3.125-3.125zm-48.438 35.938c2.4844 0 4.8711 0.98828 6.6289 2.7461 1.7578 1.7578 2.7461 4.1445 2.7461 6.6289v18.75c0 2.4844-0.98828 4.8711-2.7461 6.6289-1.7578 1.7578-4.1445 2.7461-6.6289 2.7461h-18.75c-2.4844 0-4.8711-0.98828-6.6289-2.7461-1.7578-1.7578-2.7461-4.1445-2.7461-6.6289v-18.75c0-2.4844 0.98828-4.8711 2.7461-6.6289 1.7578-1.7578 4.1445-2.7461 6.6289-2.7461zm-17.359 22.914 4.6875 3.125c1.2422 0.82422 2.8906 0.66016 3.9453-0.39062l7.8125-7.8125c1.2188-1.2188 1.2188-3.1992 0-4.4219-1.2188-1.2188-3.1992-1.2188-4.4219 0l-6 6-2.5547-1.6992c-1.4375-0.96094-3.375-0.57031-4.3359 0.86328-0.95703 1.4375-0.56641 3.375 0.86719 4.3359zm67.359-22.914c2.4883 0 4.8711 0.98828 6.6289 2.7461 1.7578 1.7578 2.7461 4.1445 2.7461 6.6289v18.75c0 2.4844-0.98828 4.8711-2.7461 6.6289-1.7578 1.7578-4.1406 2.7461-6.6289 2.7461h-18.75c-2.4883 0-4.8711-0.98828-6.6289-2.7461-1.7578-1.7578-2.7461-4.1445-2.7461-6.6289v-18.75c0-2.4844 0.98828-4.8711 2.7461-6.6289 1.7578-1.7578 4.1406-2.7461 6.6289-2.7461z" fill-rule="evenodd"/>
</svg>