<svg xmlns="http://www.w3.org/2000/svg" version="1.1" viewBox="-5.0 -10.0 110.0 135.0">
 <g>
  <path d="m31.629 81.16h-4.1602c-4.0039 0.14062-7.3672-2.9922-7.5078-7v-47.738c0.14453-4.0078 3.5039-7.1367 7.5078-7h3.793c1.3789 0 2.5-1.1211 2.5-2.5 0-1.3828-1.1211-2.5-2.5-2.5h-3.793c-6.75-0.11719-12.328 5.2461-12.469 12v47.77c0.14062 6.7656 5.7422 12.137 12.512 12h4.1602c1.3789 0 2.5-1.1211 2.5-2.5 0-1.3828-1.1211-2.5-2.5-2.5z"/>
  <path d="m84.23 48.191-15.121-15c-0.46484-0.48438-1.1055-0.75781-1.7773-0.76172-0.67188-0.003907-1.3164 0.25781-1.7891 0.73437-0.47266 0.47656-0.73438 1.1211-0.72656 1.7891 0.003906 0.67188 0.28125 1.3125 0.76172 1.7773l10.871 10.77h-48.699c-1.3789 0-2.5 1.1211-2.5 2.5s1.1211 2.5 2.5 2.5h48.648l-10.82 10.82c-0.70703 0.71484-0.91797 1.7891-0.53125 2.7188 0.38672 0.92969 1.2969 1.5391 2.3047 1.5391 0.66016 0.007813 1.293-0.25781 1.7578-0.72656l15.129-15.121c0.47266-0.46875 0.73438-1.1055 0.73438-1.7695 0-0.66406-0.26172-1.3008-0.73438-1.7695z"/>
 </g>
</svg>